<svg width="25" height="25" viewBox="0 0 25 25" fill="none" xmlns="http://www.w3.org/2000/svg">
<path d="M9.87444 3.67188H7.64649C6.40384 3.67188 5.39648 4.67924 5.39648 5.92188V19.4219C5.39648 20.6645 6.40384 21.6719 7.64649 21.6719H16.6465C17.8891 21.6719 18.8965 20.6645 18.8965 19.4219V12.6719M9.87444 3.67188C11.1171 3.67188 12.1465 4.67924 12.1465 5.92188V8.17188C12.1465 9.41452 13.1538 10.4219 14.3965 10.4219H16.6465C17.8891 10.4219 18.8965 11.4292 18.8965 12.6719M9.87444 3.67188C13.5644 3.67188 18.8965 9.03157 18.8965 12.6719" stroke="black" stroke-width="1.5" stroke-linecap="round" stroke-linejoin="round"/>
<path d="M9.39648 17.1719H15.3965" stroke="black" stroke-width="1.5" stroke-linecap="round" stroke-linejoin="round"/>
<path d="M9.39648 14.1719H13.3965" stroke="black" stroke-width="1.5" stroke-linecap="round" stroke-linejoin="round"/>
</svg>
