<svg width="25" height="25" viewBox="0 0 25 25" fill="none" xmlns="http://www.w3.org/2000/svg">
<path d="M9.87395 3.1875H7.646C6.40336 3.1875 5.396 4.19486 5.396 5.4375V18.9375C5.396 20.1801 6.40336 21.1875 7.646 21.1875H16.646C17.8886 21.1875 18.896 20.1801 18.896 18.9375V12.1875M9.87395 3.1875C11.1166 3.1875 12.146 4.19486 12.146 5.4375V7.6875C12.146 8.93014 13.1534 9.9375 14.396 9.9375H16.646C17.8886 9.9375 18.896 10.9449 18.896 12.1875M9.87395 3.1875C13.5639 3.1875 18.896 8.5472 18.896 12.1875" stroke="white" stroke-width="1.5" stroke-linecap="round" stroke-linejoin="round"/>
<path d="M9.396 16.6875H15.396" stroke="white" stroke-width="1.5" stroke-linecap="round" stroke-linejoin="round"/>
<path d="M9.396 13.6875H13.396" stroke="white" stroke-width="1.5" stroke-linecap="round" stroke-linejoin="round"/>
</svg>
