<svg width="15" height="27" viewBox="0 0 15 27" fill="none" xmlns="http://www.w3.org/2000/svg">
<path d="M13.8636 1.78033L13.8636 1.78032C14.1565 1.48743 14.1565 1.01256 13.8636 0.719672L14.2168 0.366489L13.8636 0.719672C13.5707 0.426778 13.096 0.426776 12.8031 0.719666L13.8636 1.78033ZM13.8636 1.78033L2.66421 12.9798L2.31066 13.3333L2.66421 13.6869L13.8636 24.8864C14.1565 25.1793 14.1565 25.654 13.8636 25.9469C13.5707 26.2398 13.096 26.2398 12.8031 25.9469L0.719672 13.8636C0.71967 13.8636 0.719667 13.8636 0.719665 13.8636C0.426778 13.5707 0.426779 13.096 0.719666 12.803C0.719668 12.803 0.71967 12.803 0.719672 12.803L12.803 0.719672L13.8636 1.78033Z" fill="white" stroke="white"/>
</svg>
