<svg width="100" height="25" viewBox="0 0 100 25" fill="none" xmlns="http://www.w3.org/2000/svg">
<path d="M9.099 14.0156H3.25525L3.224 10.7969H8.13025C8.99483 10.7969 9.70317 10.6875 10.2552 10.4688C10.8073 10.2396 11.2188 9.91146 11.4896 9.48438C11.7709 9.04688 11.9115 8.51562 11.9115 7.89062C11.9115 7.18229 11.7761 6.60938 11.5052 6.17188C11.2448 5.73438 10.8334 5.41667 10.2709 5.21875C9.71879 5.02083 9.00525 4.92188 8.13025 4.92188H4.88025V24H0.192749V1.25H8.13025C9.45317 1.25 10.6355 1.375 11.6771 1.625C12.7292 1.875 13.6198 2.25521 14.349 2.76562C15.0782 3.27604 15.6355 3.92188 16.0209 4.70312C16.4063 5.47396 16.599 6.39062 16.599 7.45312C16.599 8.39062 16.3855 9.25521 15.9584 10.0469C15.5417 10.8385 14.8802 11.4844 13.974 11.9844C13.0782 12.4844 11.9063 12.7604 10.4584 12.8125L9.099 14.0156ZM8.89587 24H1.974L3.80212 20.3438H8.89587C9.71879 20.3438 10.3907 20.2135 10.9115 19.9531C11.4323 19.6823 11.8177 19.3177 12.0677 18.8594C12.3177 18.401 12.4427 17.875 12.4427 17.2812C12.4427 16.6146 12.3282 16.0365 12.099 15.5469C11.8802 15.0573 11.5261 14.6823 11.0365 14.4219C10.5469 14.151 9.90108 14.0156 9.099 14.0156H4.58337L4.61462 10.7969H10.2396L11.3177 12.0625C12.7032 12.0417 13.8177 12.2865 14.6615 12.7969C15.5157 13.2969 16.1355 13.9479 16.5209 14.75C16.9167 15.5521 17.1146 16.4115 17.1146 17.3281C17.1146 18.7865 16.7969 20.0156 16.1615 21.0156C15.5261 22.0052 14.5938 22.75 13.3646 23.25C12.1459 23.75 10.6563 24 8.89587 24ZM24.691 7.09375V24H20.1754V7.09375H24.691ZM19.8941 2.6875C19.8941 2.03125 20.1233 1.48958 20.5816 1.0625C21.04 0.635417 21.6545 0.421875 22.4254 0.421875C23.1858 0.421875 23.7952 0.635417 24.2535 1.0625C24.7222 1.48958 24.9566 2.03125 24.9566 2.6875C24.9566 3.34375 24.7222 3.88542 24.2535 4.3125C23.7952 4.73958 23.1858 4.95312 22.4254 4.95312C21.6545 4.95312 21.04 4.73958 20.5816 4.3125C20.1233 3.88542 19.8941 3.34375 19.8941 2.6875ZM41.4549 20.4844V24H28.6111V20.4844H41.4549ZM41.2049 9.6875L30.4236 24H27.408V21.3281L38.1424 7.09375H41.2049V9.6875ZM39.6111 7.09375V10.625H27.658V7.09375H39.6111ZM48.2812 10.7031V24H43.7812V7.09375H48L48.2812 10.7031ZM47.625 14.9531H46.4062C46.4062 13.7031 46.5677 12.5781 46.8906 11.5781C47.2135 10.5677 47.6667 9.70833 48.25 9C48.8333 8.28125 49.526 7.73438 50.3281 7.35938C51.1406 6.97396 52.0469 6.78125 53.0469 6.78125C53.8385 6.78125 54.5625 6.89583 55.2188 7.125C55.875 7.35417 56.4375 7.71875 56.9062 8.21875C57.3854 8.71875 57.75 9.38021 58 10.2031C58.2604 11.026 58.3906 12.0312 58.3906 13.2188V24H53.8594V13.2031C53.8594 12.4531 53.7552 11.8698 53.5469 11.4531C53.3385 11.0365 53.0312 10.7448 52.625 10.5781C52.2292 10.401 51.7396 10.3125 51.1562 10.3125C50.5521 10.3125 50.026 10.4323 49.5781 10.6719C49.1406 10.9115 48.776 11.2448 48.4844 11.6719C48.2031 12.0885 47.9896 12.5781 47.8438 13.1406C47.6979 13.7031 47.625 14.3073 47.625 14.9531ZM69.1857 24.3125C67.8732 24.3125 66.6962 24.1042 65.6545 23.6875C64.6128 23.2604 63.7274 22.6719 62.9982 21.9219C62.2795 21.1719 61.7274 20.3021 61.342 19.3125C60.9566 18.3125 60.7639 17.25 60.7639 16.125V15.5C60.7639 14.2188 60.9462 13.0469 61.3107 11.9844C61.6753 10.9219 62.1962 10 62.8732 9.21875C63.5607 8.4375 64.3941 7.83854 65.3732 7.42188C66.3524 6.99479 67.4566 6.78125 68.6857 6.78125C69.8837 6.78125 70.9462 6.97917 71.8732 7.375C72.8003 7.77083 73.5764 8.33333 74.2014 9.0625C74.8368 9.79167 75.316 10.6667 75.6389 11.6875C75.9618 12.6979 76.1232 13.8229 76.1232 15.0625V16.9375H62.6857V13.9375H71.7014V13.5938C71.7014 12.9688 71.5868 12.4115 71.3576 11.9219C71.1389 11.4219 70.8055 11.026 70.3576 10.7344C69.9097 10.4427 69.3368 10.2969 68.6389 10.2969C68.0451 10.2969 67.5347 10.4271 67.1076 10.6875C66.6805 10.9479 66.3316 11.3125 66.0607 11.7812C65.8003 12.25 65.6024 12.8021 65.467 13.4375C65.342 14.0625 65.2795 14.75 65.2795 15.5V16.125C65.2795 16.8021 65.3732 17.4271 65.5607 18C65.7587 18.5729 66.0347 19.0677 66.3889 19.4844C66.7535 19.901 67.191 20.224 67.7014 20.4531C68.2222 20.6823 68.8107 20.7969 69.467 20.7969C70.2795 20.7969 71.0347 20.6406 71.7326 20.3281C72.441 20.0052 73.0503 19.5208 73.5607 18.875L75.7482 21.25C75.3941 21.7604 74.9097 22.25 74.2951 22.7188C73.691 23.1875 72.9618 23.5729 72.1076 23.875C71.2535 24.1667 70.2795 24.3125 69.1857 24.3125ZM87.4184 19.3281C87.4184 19.0052 87.3246 18.7135 87.1371 18.4531C86.9496 18.1927 86.6007 17.9531 86.0902 17.7344C85.5902 17.5052 84.8663 17.2969 83.9184 17.1094C83.0642 16.9219 82.2673 16.6875 81.5277 16.4062C80.7986 16.1146 80.1632 15.7656 79.6215 15.3594C79.0902 14.9531 78.6736 14.474 78.3715 13.9219C78.0694 13.3594 77.9184 12.7188 77.9184 12C77.9184 11.2917 78.0694 10.625 78.3715 10C78.684 9.375 79.1267 8.82292 79.6996 8.34375C80.283 7.85417 80.9913 7.47396 81.8246 7.20312C82.6684 6.92188 83.6163 6.78125 84.6684 6.78125C86.1371 6.78125 87.3975 7.01562 88.4496 7.48438C89.5121 7.95312 90.3246 8.59896 90.8871 9.42188C91.46 10.2344 91.7465 11.1615 91.7465 12.2031H87.2465C87.2465 11.7656 87.1527 11.375 86.9652 11.0312C86.7882 10.6771 86.5069 10.401 86.1215 10.2031C85.7465 9.99479 85.2569 9.89062 84.6527 9.89062C84.1527 9.89062 83.7205 9.97917 83.3559 10.1562C82.9913 10.3229 82.71 10.5521 82.5121 10.8438C82.3246 11.125 82.2309 11.4375 82.2309 11.7812C82.2309 12.0417 82.283 12.276 82.3871 12.4844C82.5017 12.6823 82.684 12.8646 82.934 13.0312C83.184 13.1979 83.5069 13.3542 83.9027 13.5C84.309 13.6354 84.809 13.7604 85.4027 13.875C86.6215 14.125 87.71 14.4531 88.6684 14.8594C89.6267 15.2552 90.3871 15.7969 90.9496 16.4844C91.5121 17.1615 91.7934 18.0521 91.7934 19.1562C91.7934 19.9062 91.6267 20.5938 91.2934 21.2188C90.96 21.8438 90.4809 22.3906 89.8559 22.8594C89.2309 23.3177 88.4809 23.6771 87.6059 23.9375C86.7413 24.1875 85.7673 24.3125 84.684 24.3125C83.1111 24.3125 81.7777 24.0312 80.684 23.4688C79.6007 22.9062 78.7777 22.1927 78.2152 21.3281C77.6632 20.4531 77.3871 19.5573 77.3871 18.6406H81.6527C81.6736 19.2552 81.8298 19.75 82.1215 20.125C82.4236 20.5 82.8038 20.7708 83.2621 20.9375C83.7309 21.1042 84.2361 21.1875 84.7777 21.1875C85.3611 21.1875 85.8455 21.1094 86.2309 20.9531C86.6163 20.7865 86.908 20.5677 87.1059 20.2969C87.3142 20.0156 87.4184 19.6927 87.4184 19.3281ZM94.526 21.8281C94.526 21.1615 94.7552 20.6042 95.2135 20.1562C95.6823 19.7083 96.302 19.4844 97.0729 19.4844C97.8437 19.4844 98.4583 19.7083 98.9166 20.1562C99.3854 20.6042 99.6198 21.1615 99.6198 21.8281C99.6198 22.4948 99.3854 23.0521 98.9166 23.5C98.4583 23.9479 97.8437 24.1719 97.0729 24.1719C96.302 24.1719 95.6823 23.9479 95.2135 23.5C94.7552 23.0521 94.526 22.4948 94.526 21.8281Z" fill="#51AAFC"/>
</svg>
