<svg width="26" height="24" viewBox="0 0 26 24" fill="none" xmlns="http://www.w3.org/2000/svg">
<path d="M9.28213 13.0156H3.43838L3.40713 9.79688H8.31338C9.17796 9.79688 9.88629 9.6875 10.4384 9.46875C10.9905 9.23958 11.4019 8.91146 11.6728 8.48438C11.954 8.04688 12.0946 7.51562 12.0946 6.89062C12.0946 6.18229 11.9592 5.60938 11.6884 5.17188C11.428 4.73438 11.0165 4.41667 10.454 4.21875C9.90192 4.02083 9.18838 3.92188 8.31338 3.92188H5.06338V23H0.375875V0.25H8.31338C9.63629 0.25 10.8186 0.375 11.8603 0.625C12.9123 0.875 13.803 1.25521 14.5321 1.76562C15.2613 2.27604 15.8186 2.92188 16.204 3.70312C16.5894 4.47396 16.7821 5.39062 16.7821 6.45312C16.7821 7.39062 16.5686 8.25521 16.1415 9.04688C15.7248 9.83854 15.0634 10.4844 14.1571 10.9844C13.2613 11.4844 12.0894 11.7604 10.6415 11.8125L9.28213 13.0156ZM9.079 23H2.15713L3.98525 19.3438H9.079C9.90192 19.3438 10.5738 19.2135 11.0946 18.9531C11.6155 18.6823 12.0009 18.3177 12.2509 17.8594C12.5009 17.401 12.6259 16.875 12.6259 16.2812C12.6259 15.6146 12.5113 15.0365 12.2821 14.5469C12.0634 14.0573 11.7092 13.6823 11.2196 13.4219C10.73 13.151 10.0842 13.0156 9.28213 13.0156H4.7665L4.79775 9.79688H10.4228L11.5009 11.0625C12.8863 11.0417 14.0009 11.2865 14.8446 11.7969C15.6988 12.2969 16.3186 12.9479 16.704 13.75C17.0998 14.5521 17.2978 15.4115 17.2978 16.3281C17.2978 17.7865 16.98 19.0156 16.3446 20.0156C15.7092 21.0052 14.7769 21.75 13.5478 22.25C12.329 22.75 10.8394 23 9.079 23ZM20.3429 20.8281C20.3429 20.1615 20.572 19.6042 21.0304 19.1562C21.4991 18.7083 22.1189 18.4844 22.8897 18.4844C23.6606 18.4844 24.2752 18.7083 24.7335 19.1562C25.2022 19.6042 25.4366 20.1615 25.4366 20.8281C25.4366 21.4948 25.2022 22.0521 24.7335 22.5C24.2752 22.9479 23.6606 23.1719 22.8897 23.1719C22.1189 23.1719 21.4991 22.9479 21.0304 22.5C20.572 22.0521 20.3429 21.4948 20.3429 20.8281Z" fill="#51AAFC"/>
</svg>
