<svg width="38" height="32" viewBox="0 0 38 32" fill="none" xmlns="http://www.w3.org/2000/svg">
<path fill-rule="evenodd" clip-rule="evenodd" d="M14.9193 24.9783C13.098 25.0378 11.5689 23.6727 11.4977 21.9236V18.7441C11.5685 16.9947 13.0979 15.6294 14.9193 15.6892L15.5993 15.6893C15.8423 15.6893 16.0667 15.8139 16.1881 16.0159C16.3096 16.2179 16.3096 16.467 16.1881 16.669C16.0667 16.8711 15.8423 16.9956 15.5993 16.9956H14.9193C13.8755 16.9605 12.9988 17.7428 12.9583 18.7452V21.9248C12.9992 22.927 13.8755 23.7093 14.9193 23.6751L23.0464 23.6752C24.0902 23.7093 24.9665 22.927 25.0074 21.9247V18.7395C24.9673 17.7409 24.0943 16.9615 23.0547 16.9956H22.3665C22.1235 16.9956 21.8991 16.8711 21.7777 16.669C21.6561 16.467 21.6561 16.2179 21.7777 16.0159C21.8991 15.8139 22.1235 15.6893 22.3665 15.6893H23.0546C24.8716 15.6302 26.3969 16.9924 26.4674 18.7376V21.9229C26.3966 23.6719 24.8677 25.0372 23.0465 24.9777L14.9193 24.9783ZM18.2512 20.4148V13.4914L17.3672 14.2816C17.0713 14.5286 16.631 14.5286 16.335 14.2816C16.1991 14.1641 16.1214 13.9967 16.1214 13.8211C16.1214 13.6456 16.1991 13.4781 16.335 13.3608L18.464 11.4509C18.7647 11.2143 19.1975 11.2143 19.4983 11.4509L21.6272 13.3601C21.7628 13.4778 21.8402 13.6452 21.8402 13.8208C21.8402 13.9964 21.7628 14.1638 21.6272 14.2816C21.3336 14.536 20.8873 14.536 20.5937 14.2816L19.7097 13.4914V20.4148H18.2512Z" fill="#DADADA"/>
<path d="M14.9193 24.9783L14.9193 24.4783H14.9111L14.903 24.4786L14.9193 24.9783ZM11.4977 21.9236H10.9977V21.9337L10.9981 21.9439L11.4977 21.9236ZM11.4977 18.7441L10.9981 18.7239L10.9977 18.734V18.7441H11.4977ZM14.9193 15.6892L14.9029 16.1889L14.9111 16.1892L14.9192 16.1892L14.9193 15.6892ZM15.5993 15.6893L15.5992 16.1893H15.5993V15.6893ZM16.1881 16.0159L15.7596 16.2735L15.7597 16.2736L16.1881 16.0159ZM16.1881 16.669L15.7597 16.4113L15.7596 16.4115L16.1881 16.669ZM14.9193 16.9956L14.9025 17.4953L14.9109 17.4956H14.9193V16.9956ZM12.9583 18.7452L12.4587 18.725L12.4583 18.7351V18.7452H12.9583ZM12.9583 21.9248H12.4583V21.935L12.4587 21.9452L12.9583 21.9248ZM14.9193 23.6751L14.9193 23.1751H14.9111L14.9029 23.1753L14.9193 23.6751ZM23.0464 23.6752L23.0627 23.1755L23.0546 23.1752L23.0464 23.1752L23.0464 23.6752ZM25.0074 21.9247L25.507 21.9451L25.5074 21.9349V21.9247H25.0074ZM25.0074 18.7395H25.5074V18.7294L25.507 18.7194L25.0074 18.7395ZM23.0547 16.9956V17.4956H23.0629L23.0711 17.4953L23.0547 16.9956ZM21.7777 16.669L22.2062 16.4115L22.2061 16.4113L21.7777 16.669ZM21.7777 16.0159L22.2061 16.2736L22.2062 16.2735L21.7777 16.0159ZM23.0546 15.6893V16.1893H23.0627L23.0709 16.1891L23.0546 15.6893ZM26.4674 18.7376H26.9674V18.7275L26.967 18.7174L26.4674 18.7376ZM26.4674 21.9229L26.967 21.9431L26.9674 21.933V21.9229H26.4674ZM23.0465 24.9777L23.0628 24.4779L23.0546 24.4777L23.0464 24.4777L23.0465 24.9777ZM18.2512 20.4148H17.7512V20.9148H18.2512V20.4148ZM18.2512 13.4914H18.7512V12.3737L17.9179 13.1186L18.2512 13.4914ZM17.3672 14.2816L17.6876 14.6655L17.6941 14.6601L17.7004 14.6544L17.3672 14.2816ZM16.335 14.2816L16.008 14.66L16.0147 14.6655L16.335 14.2816ZM16.335 13.3608L16.6618 13.7393L16.6689 13.733L16.335 13.3608ZM18.464 11.4509L18.1548 11.058L18.1421 11.068L18.1301 11.0787L18.464 11.4509ZM19.4983 11.4509L19.8321 11.0787L19.8201 11.0679L19.8074 11.058L19.4983 11.4509ZM21.6272 13.3601L21.2934 13.7324L21.2994 13.7377L21.6272 13.3601ZM21.6272 14.2816L21.9546 14.6596L21.9553 14.659L21.6272 14.2816ZM20.5937 14.2816L20.2604 14.6544L20.2663 14.6596L20.5937 14.2816ZM19.7097 13.4914L20.0429 13.1186L19.2097 12.3737V13.4914H19.7097ZM19.7097 20.4148V20.9148H20.2097V20.4148H19.7097ZM14.903 24.4786C13.3373 24.5297 12.0566 23.3595 11.9973 21.9032L10.9981 21.9439C11.0813 23.9858 12.8588 25.5459 14.9356 25.4781L14.903 24.4786ZM11.9977 21.9236V18.7441H10.9977V21.9236H11.9977ZM11.9973 18.7643C12.0562 17.3078 13.3371 16.1375 14.9029 16.1889L14.9357 15.1894C12.8587 15.1212 11.0808 16.6815 10.9981 18.7239L11.9973 18.7643ZM14.9192 16.1892L15.5992 16.1893L15.5994 15.1893L14.9194 15.1892L14.9192 16.1892ZM15.5993 16.1893C15.6732 16.1893 15.7318 16.2273 15.7596 16.2735L16.6167 15.7583C16.4016 15.4004 16.0113 15.1893 15.5993 15.1893V16.1893ZM15.7597 16.2736C15.7858 16.3171 15.7858 16.3679 15.7597 16.4113L16.6166 16.9268C16.8335 16.5661 16.8335 16.1188 16.6166 15.7582L15.7597 16.2736ZM15.7596 16.4115C15.7318 16.4576 15.6732 16.4956 15.5993 16.4956V17.4956C16.0113 17.4956 16.4016 17.2845 16.6167 16.9266L15.7596 16.4115ZM15.5993 16.4956H14.9193V17.4956H15.5993V16.4956ZM14.9361 16.4959C13.6365 16.4522 12.5111 17.4296 12.4587 18.725L13.4578 18.7654C13.4866 18.0561 14.1146 17.4688 14.9025 17.4953L14.9361 16.4959ZM12.4583 18.7452V21.9248H13.4583V18.7452H12.4583ZM12.4587 21.9452C12.5116 23.2403 13.6364 24.2175 14.9357 24.1748L14.9029 23.1753C14.1147 23.2012 13.4868 22.6138 13.4578 21.9044L12.4587 21.9452ZM14.9193 24.1751L23.0464 24.1752L23.0464 23.1752L14.9193 23.1751L14.9193 24.1751ZM23.03 24.1749C24.3294 24.2174 25.4542 23.2403 25.507 21.9451L24.5079 21.9043C24.4789 22.6138 23.851 23.2013 23.0627 23.1755L23.03 24.1749ZM25.5074 21.9247V18.7395H24.5074V21.9247H25.5074ZM25.507 18.7194C25.4551 17.4278 24.3335 16.4534 23.0383 16.4959L23.0711 17.4953C23.8551 17.4696 24.4795 18.0541 24.5078 18.7596L25.507 18.7194ZM23.0547 16.4956H22.3665V17.4956H23.0547V16.4956ZM22.3665 16.4956C22.2926 16.4956 22.2339 16.4576 22.2062 16.4115L21.3491 16.9266C21.5642 17.2845 21.9545 17.4956 22.3665 17.4956V16.4956ZM22.2061 16.4113C22.18 16.3679 22.18 16.3171 22.2061 16.2736L21.3492 15.7582C21.1323 16.1188 21.1323 16.5661 21.3492 16.9268L22.2061 16.4113ZM22.2062 16.2735C22.2339 16.2273 22.2926 16.1893 22.3665 16.1893V15.1893C21.9545 15.1893 21.5642 15.4004 21.3491 15.7583L22.2062 16.2735ZM22.3665 16.1893H23.0546V15.1893H22.3665V16.1893ZM23.0709 16.1891C24.6323 16.1382 25.9092 17.3055 25.9678 18.7577L26.967 18.7174C26.8847 16.6793 25.111 15.1221 23.0383 15.1896L23.0709 16.1891ZM25.9674 18.7376V21.9229H26.9674V18.7376H25.9674ZM25.9678 21.9027C25.9089 23.3587 24.6284 24.5291 23.0628 24.4779L23.0301 25.4774C25.1069 25.5452 26.8843 23.985 26.967 21.9431L25.9678 21.9027ZM23.0464 24.4777L14.9193 24.4783L14.9194 25.4783L23.0465 25.4777L23.0464 24.4777ZM18.7512 20.4148V13.4914H17.7512V20.4148H18.7512ZM17.9179 13.1186L17.034 13.9089L17.7004 14.6544L18.5844 13.8641L17.9179 13.1186ZM17.0468 13.8978C16.9364 13.9899 16.7659 13.99 16.6554 13.8977L16.0147 14.6655C16.4962 15.0673 17.2061 15.0674 17.6876 14.6655L17.0468 13.8978ZM16.662 13.9034C16.6329 13.8782 16.6214 13.8475 16.6214 13.8211H15.6214C15.6214 14.1459 15.7652 14.45 16.0081 14.6599L16.662 13.9034ZM16.6214 13.8211C16.6214 13.7947 16.6329 13.7641 16.6617 13.7393L16.0083 12.9823C15.7652 13.1921 15.6214 13.4964 15.6214 13.8211H16.6214ZM16.6689 13.733L18.7979 11.8231L18.1301 11.0787L16.0012 12.9886L16.6689 13.733ZM18.7732 11.8439C18.8925 11.75 19.0697 11.75 19.1891 11.8439L19.8074 11.058C19.3253 10.6786 18.637 10.6786 18.1548 11.058L18.7732 11.8439ZM19.1644 11.8232L21.2934 13.7324L21.9611 12.9879L19.8321 11.0787L19.1644 11.8232ZM21.2994 13.7377C21.3285 13.7629 21.3402 13.7939 21.3402 13.8208H22.3402C22.3402 13.4966 22.1971 13.1927 21.955 12.9826L21.2994 13.7377ZM21.3402 13.8208C21.3402 13.8477 21.3285 13.8788 21.2992 13.9043L21.9553 14.659C22.197 14.4488 22.3402 14.1451 22.3402 13.8208H21.3402ZM21.2999 13.9037C21.1941 13.9953 21.0268 13.9953 20.921 13.9037L20.2663 14.6596C20.7479 15.0767 21.473 15.0767 21.9546 14.6596L21.2999 13.9037ZM20.9269 13.9089L20.0429 13.1186L19.3764 13.8641L20.2604 14.6544L20.9269 13.9089ZM19.2097 13.4914V20.4148H20.2097V13.4914H19.2097ZM19.7097 19.9148H18.2512V20.9148H19.7097V19.9148Z" fill="#DADADA"/>
<path d="M36.1 5.07713H31.1275C29.8719 5.07713 28.7491 4.29519 28.3137 3.1175L27.7524 1.59939C27.5794 1.13239 27.2562 0.727515 26.8273 0.440928C26.3985 0.154342 25.8854 0.000241756 25.3592 4.87927e-08H12.6068C12.0777 -0.000100585 11.562 0.155467 11.1318 0.444865C10.7017 0.734264 10.3788 1.14296 10.2085 1.6136L9.67046 3.09884C9.24036 4.28623 8.1127 5.07713 6.84981 5.07713H1.90003C1.39628 5.07766 0.913332 5.26593 0.55713 5.60064C0.200928 5.93534 0.000565759 6.38915 0 6.86249V30.0722C0.000565759 30.5456 0.200928 30.9994 0.55713 31.3341C0.913332 31.6688 1.39628 31.8571 1.90003 31.8576H36.1C36.6037 31.8571 37.0867 31.6688 37.4429 31.3341C37.7991 30.9994 37.9994 30.5456 38 30.0722V6.86249C37.9994 6.38915 37.7991 5.93534 37.4429 5.60064C37.0867 5.26593 36.6037 5.07766 36.1 5.07713ZM35.4666 26.4771C35.4666 28.134 34.1235 29.4771 32.4666 29.4771H5.53392C3.87707 29.4771 2.53392 28.134 2.53392 26.4771V10.4576C2.53392 8.80076 3.87707 7.45761 5.53392 7.45761H8.66391C9.92689 7.45761 11.0546 6.66661 11.4847 5.4791L11.8903 4.35901C12.3203 3.17149 13.448 2.38049 14.711 2.38049H23.2699C24.5255 2.38049 25.6483 3.16245 26.0837 4.34017L26.5117 5.49793C26.9472 6.67565 28.07 7.45761 29.3256 7.45761H32.4666C34.1235 7.45761 35.4666 8.80076 35.4666 10.4576V26.4771Z" fill="#DADADA"/>
</svg>
