<svg width="24" height="26" viewBox="0 0 24 26" fill="none" xmlns="http://www.w3.org/2000/svg">
<path fill-rule="evenodd" clip-rule="evenodd" d="M0 1.69687C0 1.19982 0.402944 0.796875 0.9 0.796875H3.32424C3.74306 0.796875 4.10653 1.08578 4.20103 1.4938L5.0438 5.13248L22.7878 6.50871C23.2564 6.54506 23.6182 6.93595 23.6182 7.40601V15.9697C23.6182 16.4353 23.2631 16.824 22.7994 16.8661L7.04179 18.2933C6.59416 18.3339 6.18524 18.038 6.08382 17.6001L3.43919 6.1818L2.60887 2.59687H0.9C0.402944 2.59687 0 2.19393 0 1.69687ZM9.05308 8.64638C8.94985 8.16016 8.47201 7.84969 7.98579 7.95292C7.49957 8.05615 7.1891 8.53399 7.29233 9.02021L8.50445 14.7293C8.60768 15.2156 9.08552 15.526 9.57174 15.4228C10.058 15.3196 10.3684 14.8417 10.2652 14.3555L9.05308 8.64638ZM13.5189 8.29667C14.0123 8.2368 14.4609 8.58828 14.5207 9.08172L15.1268 14.0772C15.1867 14.5707 14.8352 15.0192 14.3418 15.0791C13.8483 15.1389 13.3998 14.7874 13.3399 14.294L12.7338 9.29851C12.674 8.80507 13.0255 8.35653 13.5189 8.29667ZM19.9818 9.54694C19.9818 9.04988 19.5788 8.64694 19.0818 8.64694C18.5847 8.64694 18.1818 9.04988 18.1818 9.54694V13.8288C18.1818 14.3258 18.5847 14.7288 19.0818 14.7288C19.5788 14.7288 19.9818 14.3258 19.9818 13.8288V9.54694ZM11.809 23.1061C11.809 24.6827 10.7237 25.9607 9.38479 25.9607C8.04592 25.9607 6.96055 24.6827 6.96055 23.1061C6.96055 21.5296 8.04592 20.2516 9.38479 20.2516C10.7237 20.2516 11.809 21.5296 11.809 23.1061ZM19.0818 25.9607C20.4207 25.9607 21.5061 24.6827 21.5061 23.1061C21.5061 21.5296 20.4207 20.2516 19.0818 20.2516C17.7429 20.2516 16.6576 21.5296 16.6576 23.1061C16.6576 24.6827 17.7429 25.9607 19.0818 25.9607Z" fill="white"/>
</svg>
