<svg width="21" height="22" viewBox="0 0 21 22" fill="none" xmlns="http://www.w3.org/2000/svg">
<path d="M19.183 8.21628V4.33928C19.183 3.1352 18.6365 2.64844 17.2787 2.64844H13.8287C12.4709 2.64844 11.9243 3.1352 11.9243 4.33928V8.20774C11.9243 9.42036 12.4709 9.89858 13.8287 9.89858H17.2787C18.6365 9.90712 19.183 9.42036 19.183 8.21628Z" stroke="white" stroke-width="1.02476" stroke-linecap="round" stroke-linejoin="round"/>
<path d="M19.183 17.8309V14.3809C19.183 13.0231 18.6365 12.4766 17.2787 12.4766H13.8287C12.4709 12.4766 11.9243 13.0231 11.9243 14.3809V17.8309C11.9243 19.1887 12.4709 19.7352 13.8287 19.7352H17.2787C18.6365 19.7352 19.183 19.1887 19.183 17.8309Z" stroke="white" stroke-width="1.02476" stroke-linecap="round" stroke-linejoin="round"/>
<path d="M9.3622 8.21628V4.33928C9.3622 3.1352 8.81566 2.64844 7.45786 2.64844H4.00785C2.65005 2.64844 2.10352 3.1352 2.10352 4.33928V8.20774C2.10352 9.42036 2.65005 9.89858 4.00785 9.89858H7.45786C8.81566 9.90712 9.3622 9.42036 9.3622 8.21628Z" stroke="white" stroke-width="1.02476" stroke-linecap="round" stroke-linejoin="round"/>
<path d="M9.3622 17.8309V14.3809C9.3622 13.0231 8.81566 12.4766 7.45786 12.4766H4.00785C2.65005 12.4766 2.10352 13.0231 2.10352 14.3809V17.8309C2.10352 19.1887 2.65005 19.7352 4.00785 19.7352H7.45786C8.81566 19.7352 9.3622 19.1887 9.3622 17.8309Z" stroke="white" stroke-width="1.02476" stroke-linecap="round" stroke-linejoin="round"/>
</svg>
