<svg width="21" height="22" viewBox="0 0 21 22" fill="none" xmlns="http://www.w3.org/2000/svg">
<path d="M10.6434 13.4519C12.0583 13.4519 13.2053 12.3049 13.2053 10.89C13.2053 9.47512 12.0583 8.32812 10.6434 8.32812C9.22854 8.32812 8.08154 9.47512 8.08154 10.89C8.08154 12.3049 9.22854 13.4519 10.6434 13.4519Z" stroke="#898989" stroke-width="1.02476" stroke-miterlimit="10" stroke-linecap="round" stroke-linejoin="round"/>
<path d="M2.10352 11.6401V10.1371C2.10352 9.24899 2.82938 8.51458 3.72605 8.51458C5.27172 8.51458 5.90365 7.42151 5.12654 6.08079C4.68248 5.31222 4.94721 4.31308 5.72432 3.86902L7.20167 3.0236C7.87631 2.62224 8.74735 2.86135 9.14871 3.53598L9.24265 3.69823C10.0112 5.03895 11.2751 5.03895 12.0522 3.69823L12.1461 3.53598C12.5475 2.86135 13.4185 2.62224 14.0932 3.0236L15.5705 3.86902C16.3476 4.31308 16.6123 5.31222 16.1683 6.08079C15.3912 7.42151 16.0231 8.51458 17.5688 8.51458C18.4569 8.51458 19.1913 9.24045 19.1913 10.1371V11.6401C19.1913 12.5282 18.4654 13.2626 17.5688 13.2626C16.0231 13.2626 15.3912 14.3557 16.1683 15.6964C16.6123 16.4735 16.3476 17.4641 15.5705 17.9082L14.0932 18.7536C13.4185 19.155 12.5475 18.9158 12.1461 18.2412L12.0522 18.079C11.2836 16.7382 10.0198 16.7382 9.24265 18.079L9.14871 18.2412C8.74735 18.9158 7.87631 19.155 7.20167 18.7536L5.72432 17.9082C4.94721 17.4641 4.68248 16.465 5.12654 15.6964C5.90365 14.3557 5.27172 13.2626 3.72605 13.2626C2.82938 13.2626 2.10352 12.5282 2.10352 11.6401Z" stroke="#454545" stroke-width="1.02476" stroke-miterlimit="10" stroke-linecap="round" stroke-linejoin="round"/>
</svg>
