<svg width="26" height="28" viewBox="0 0 26 28" fill="none" xmlns="http://www.w3.org/2000/svg">
<path d="M22.9949 12.1615V23.3333C22.9949 24.8061 21.8762 26 20.4962 26H5.50383C4.12382 26 3.00511 24.8061 3.00511 23.3333V12.1615M7.37787 9.66667L8.00255 2M7.37787 9.66667C7.37787 13.5357 13 13.5357 13 9.66667M7.37787 9.66667C7.37787 13.901 0.934195 13.0276 1.83666 9.33564L3.14248 3.99354C3.42951 2.81933 4.42321 2 5.56029 2H20.4397C21.5768 2 22.5705 2.81933 22.8575 3.99354L24.1633 9.33564C25.0658 13.0276 18.6221 13.901 18.6221 9.66667M13 9.66667V2M13 9.66667C13 13.5357 18.6221 13.5357 18.6221 9.66667M18.6221 9.66667L17.9974 2" stroke="#544C4C" stroke-width="3" stroke-linecap="round" stroke-linejoin="round"/>
</svg>
