<svg width="24" height="25" viewBox="0 0 24 25" fill="none" xmlns="http://www.w3.org/2000/svg">
<g clip-path="url(#clip0_165_25055)">
<path d="M3 5.75781H3.01373C3.13809 4.63282 4.09186 3.75781 5.25 3.75781H16.75C17.9926 3.75781 19 4.76517 19 6.00781V6.84478C20.4333 7.18336 21.5 8.47102 21.5 10.0078V18.5078C21.5 20.3027 20.0449 21.7578 18.25 21.7578H6.25C4.45508 21.7578 3 20.3027 3 18.5078V5.75781ZM18.25 8.25781H4.5V18.5078C4.5 19.4743 5.2835 20.2578 6.25 20.2578H18.25C19.2165 20.2578 20 19.4743 20 18.5078V10.0078C20 9.04131 19.2165 8.25781 18.25 8.25781ZM17.5 6.75781V6.00781C17.5 5.5936 17.1642 5.25781 16.75 5.25781H5.25C4.83579 5.25781 4.5 5.5936 4.5 6.00781C4.5 6.42202 4.83579 6.75781 5.25 6.75781H17.5Z" fill="#212121"/>
<path d="M20.571 20.6721C18.4231 22.8201 14.9408 22.8201 12.7928 20.6721C10.6449 18.5242 10.6449 15.0419 12.7928 12.894C14.9408 10.7461 18.4231 10.7461 20.571 12.894C22.7189 15.0419 22.7189 18.5242 20.571 20.6721ZM17.182 13.9546C17.1819 13.6785 16.9581 13.4546 16.6819 13.4546C16.4058 13.4546 16.1819 13.6785 16.1819 13.9546L16.1819 16.2831L13.8535 16.283C13.5774 16.2831 13.3535 16.5069 13.3534 16.7831C13.3535 17.0592 13.5774 17.2831 13.8535 17.2831L16.1819 17.2831L16.1819 19.6115C16.1819 19.8876 16.4058 20.1115 16.6819 20.1115C16.9581 20.1115 17.1819 19.8876 17.182 19.6115L17.1819 17.2831L19.5104 17.2831C19.7865 17.2831 20.0104 17.0592 20.0104 16.7831C20.0104 16.5069 19.7865 16.2831 19.5104 16.283L17.1819 16.2831L17.182 13.9546Z" fill="#212121"/>
</g>
<defs>
<clipPath id="clip0_165_25055">
<rect width="24" height="24" fill="white" transform="translate(0 0.757812)"/>
</clipPath>
</defs>
</svg>
